<mxfile host="app.diagrams.net" modified="2024-01-24T07:44:27.038Z" agent="Mozilla/5.0 (Macintosh; Intel Mac OS X 10_15_7) AppleWebKit/537.36 (KHTML, like Gecko) Chrome/120.0.0.0 Safari/537.36 OPR/106.0.0.0" etag="Urge9bI-jpaoJjB7mSz1" version="22.1.22" type="device">
  <diagram name="Страница — 1" id="J6G2fREbWxx0680CNt4n">
    <mxGraphModel dx="1059" dy="720" grid="1" gridSize="10" guides="1" tooltips="1" connect="1" arrows="1" fold="1" page="1" pageScale="1" pageWidth="827" pageHeight="1169" math="0" shadow="0">
      <root>
        <mxCell id="0" />
        <mxCell id="1" parent="0" />
        <mxCell id="FTJp6IoLAarafYnfe9E8-142" value="" style="rounded=0;whiteSpace=wrap;html=1;" vertex="1" parent="1">
          <mxGeometry x="150" y="20" width="1230" height="2430" as="geometry" />
        </mxCell>
        <mxCell id="FTJp6IoLAarafYnfe9E8-1" value="CarRacing" style="swimlane;childLayout=stackLayout;resizeParent=1;resizeParentMax=0;startSize=20;html=1;" vertex="1" parent="1">
          <mxGeometry x="199" y="40" width="1150" height="2370" as="geometry" />
        </mxCell>
        <mxCell id="FTJp6IoLAarafYnfe9E8-5" value="" style="swimlane;startSize=20;" vertex="1" parent="FTJp6IoLAarafYnfe9E8-1">
          <mxGeometry y="20" width="50" height="2350" as="geometry" />
        </mxCell>
        <mxCell id="FTJp6IoLAarafYnfe9E8-6" value="" style="ellipse;html=1;shape=startState;fillColor=#000000;strokeColor=#FFFFFF;" vertex="1" parent="FTJp6IoLAarafYnfe9E8-5">
          <mxGeometry x="10.999999999999545" y="30" width="30" height="30" as="geometry" />
        </mxCell>
        <mxCell id="FTJp6IoLAarafYnfe9E8-8" value="" style="ellipse;html=1;shape=endState;fillColor=#000000;strokeColor=#ff0000;" vertex="1" parent="FTJp6IoLAarafYnfe9E8-5">
          <mxGeometry x="9.999999999999545" y="2310" width="30" height="30" as="geometry" />
        </mxCell>
        <mxCell id="FTJp6IoLAarafYnfe9E8-2" value="Player" style="swimlane;startSize=20;html=1;" vertex="1" parent="FTJp6IoLAarafYnfe9E8-1">
          <mxGeometry x="50" y="20" width="240" height="2350" as="geometry" />
        </mxCell>
        <mxCell id="FTJp6IoLAarafYnfe9E8-11" value="Choose Option" style="rounded=1;whiteSpace=wrap;html=1;arcSize=40;fontColor=#000000;fillColor=#FFFFFF;strokeColor=#000000;" vertex="1" parent="FTJp6IoLAarafYnfe9E8-2">
          <mxGeometry x="120.99999999999955" y="170" width="109" height="25" as="geometry" />
        </mxCell>
        <mxCell id="FTJp6IoLAarafYnfe9E8-26" value="Choose Map" style="rounded=1;whiteSpace=wrap;html=1;arcSize=40;fontColor=#000000;fillColor=#FFFFFF;strokeColor=#000000;" vertex="1" parent="FTJp6IoLAarafYnfe9E8-2">
          <mxGeometry x="70.99999999999955" y="640" width="109" height="30" as="geometry" />
        </mxCell>
        <mxCell id="FTJp6IoLAarafYnfe9E8-70" value="Press any Button for Moving" style="rounded=1;whiteSpace=wrap;html=1;arcSize=40;fontColor=#000000;fillColor=#FFFFFF;strokeColor=#000000;" vertex="1" parent="FTJp6IoLAarafYnfe9E8-2">
          <mxGeometry x="131" y="1170" width="109" height="30" as="geometry" />
        </mxCell>
        <mxCell id="FTJp6IoLAarafYnfe9E8-126" style="edgeStyle=orthogonalEdgeStyle;rounded=0;orthogonalLoop=1;jettySize=auto;html=1;exitX=0;exitY=0.5;exitDx=0;exitDy=0;entryX=0;entryY=0.5;entryDx=0;entryDy=0;" edge="1" parent="FTJp6IoLAarafYnfe9E8-2" source="FTJp6IoLAarafYnfe9E8-109" target="FTJp6IoLAarafYnfe9E8-127">
          <mxGeometry relative="1" as="geometry">
            <mxPoint x="31" y="50" as="targetPoint" />
          </mxGeometry>
        </mxCell>
        <mxCell id="FTJp6IoLAarafYnfe9E8-109" value="Choose option" style="rounded=1;whiteSpace=wrap;html=1;arcSize=40;fontColor=#000000;fillColor=#FFFFFF;strokeColor=#000000;" vertex="1" parent="FTJp6IoLAarafYnfe9E8-2">
          <mxGeometry x="81" y="1760" width="133.37" height="30" as="geometry" />
        </mxCell>
        <mxCell id="FTJp6IoLAarafYnfe9E8-127" value="" style="rhombus;whiteSpace=wrap;html=1;fontColor=#000000;fillColor=#FFFFFF;strokeColor=#000000;" vertex="1" parent="FTJp6IoLAarafYnfe9E8-2">
          <mxGeometry x="71" y="110" width="66.69" height="40" as="geometry" />
        </mxCell>
        <mxCell id="FTJp6IoLAarafYnfe9E8-131" value="Choose option" style="rounded=1;whiteSpace=wrap;html=1;arcSize=40;fontColor=#000000;fillColor=#FFFFFF;strokeColor=#000000;" vertex="1" parent="FTJp6IoLAarafYnfe9E8-2">
          <mxGeometry x="58.81" y="2000" width="133.37" height="30" as="geometry" />
        </mxCell>
        <mxCell id="FTJp6IoLAarafYnfe9E8-153" style="edgeStyle=orthogonalEdgeStyle;rounded=0;orthogonalLoop=1;jettySize=auto;html=1;exitX=0.5;exitY=1;exitDx=0;exitDy=0;entryX=0.5;entryY=0;entryDx=0;entryDy=0;" edge="1" parent="FTJp6IoLAarafYnfe9E8-2" source="FTJp6IoLAarafYnfe9E8-151" target="FTJp6IoLAarafYnfe9E8-127">
          <mxGeometry relative="1" as="geometry" />
        </mxCell>
        <mxCell id="FTJp6IoLAarafYnfe9E8-151" value="" style="rhombus;whiteSpace=wrap;html=1;fontColor=#000000;fillColor=#FFFFFF;strokeColor=#000000;" vertex="1" parent="FTJp6IoLAarafYnfe9E8-2">
          <mxGeometry x="71" y="60" width="66.69" height="40" as="geometry" />
        </mxCell>
        <mxCell id="FTJp6IoLAarafYnfe9E8-12" style="edgeStyle=orthogonalEdgeStyle;rounded=0;orthogonalLoop=1;jettySize=auto;html=1;exitX=0.5;exitY=1;exitDx=0;exitDy=0;entryX=0.5;entryY=0;entryDx=0;entryDy=0;" edge="1" parent="FTJp6IoLAarafYnfe9E8-1" source="FTJp6IoLAarafYnfe9E8-9" target="FTJp6IoLAarafYnfe9E8-11">
          <mxGeometry relative="1" as="geometry" />
        </mxCell>
        <mxCell id="FTJp6IoLAarafYnfe9E8-13" style="edgeStyle=orthogonalEdgeStyle;rounded=0;orthogonalLoop=1;jettySize=auto;html=1;exitX=0.5;exitY=1;exitDx=0;exitDy=0;" edge="1" parent="FTJp6IoLAarafYnfe9E8-1" source="FTJp6IoLAarafYnfe9E8-11" target="FTJp6IoLAarafYnfe9E8-14">
          <mxGeometry relative="1" as="geometry">
            <mxPoint x="175.4838709677415" y="230" as="targetPoint" />
          </mxGeometry>
        </mxCell>
        <mxCell id="FTJp6IoLAarafYnfe9E8-32" value="No" style="edgeStyle=orthogonalEdgeStyle;rounded=0;orthogonalLoop=1;jettySize=auto;html=1;exitX=0.5;exitY=1;exitDx=0;exitDy=0;entryX=0.5;entryY=0;entryDx=0;entryDy=0;" edge="1" parent="FTJp6IoLAarafYnfe9E8-1" source="FTJp6IoLAarafYnfe9E8-31" target="FTJp6IoLAarafYnfe9E8-26">
          <mxGeometry x="0.2742" relative="1" as="geometry">
            <mxPoint as="offset" />
          </mxGeometry>
        </mxCell>
        <mxCell id="FTJp6IoLAarafYnfe9E8-45" style="edgeStyle=orthogonalEdgeStyle;rounded=0;orthogonalLoop=1;jettySize=auto;html=1;exitX=0.5;exitY=1;exitDx=0;exitDy=0;entryX=0;entryY=0.5;entryDx=0;entryDy=0;" edge="1" parent="FTJp6IoLAarafYnfe9E8-1" source="FTJp6IoLAarafYnfe9E8-26" target="FTJp6IoLAarafYnfe9E8-147">
          <mxGeometry relative="1" as="geometry">
            <mxPoint x="441" y="750" as="targetPoint" />
          </mxGeometry>
        </mxCell>
        <mxCell id="FTJp6IoLAarafYnfe9E8-69" style="edgeStyle=orthogonalEdgeStyle;rounded=0;orthogonalLoop=1;jettySize=auto;html=1;exitX=0.5;exitY=1;exitDx=0;exitDy=0;entryX=0.5;entryY=0;entryDx=0;entryDy=0;" edge="1" parent="FTJp6IoLAarafYnfe9E8-1" source="FTJp6IoLAarafYnfe9E8-55" target="FTJp6IoLAarafYnfe9E8-70">
          <mxGeometry relative="1" as="geometry">
            <mxPoint x="120.99999999999989" y="1190" as="targetPoint" />
          </mxGeometry>
        </mxCell>
        <mxCell id="FTJp6IoLAarafYnfe9E8-3" value="Game" style="swimlane;startSize=20;html=1;" vertex="1" parent="FTJp6IoLAarafYnfe9E8-1">
          <mxGeometry x="290" y="20" width="860" height="2350" as="geometry" />
        </mxCell>
        <mxCell id="FTJp6IoLAarafYnfe9E8-9" value="Show a MainMenu" style="rounded=1;whiteSpace=wrap;html=1;arcSize=40;fontColor=#000000;fillColor=#FFFFFF;strokeColor=#000000;" vertex="1" parent="FTJp6IoLAarafYnfe9E8-3">
          <mxGeometry x="51" y="100" width="109" height="25" as="geometry" />
        </mxCell>
        <mxCell id="FTJp6IoLAarafYnfe9E8-20" style="edgeStyle=orthogonalEdgeStyle;rounded=0;orthogonalLoop=1;jettySize=auto;html=1;exitX=1;exitY=0.5;exitDx=0;exitDy=0;entryX=0.5;entryY=0;entryDx=0;entryDy=0;" edge="1" parent="FTJp6IoLAarafYnfe9E8-3" source="FTJp6IoLAarafYnfe9E8-14" target="FTJp6IoLAarafYnfe9E8-18">
          <mxGeometry relative="1" as="geometry" />
        </mxCell>
        <mxCell id="FTJp6IoLAarafYnfe9E8-21" value="No" style="edgeLabel;html=1;align=center;verticalAlign=middle;resizable=0;points=[];" vertex="1" connectable="0" parent="FTJp6IoLAarafYnfe9E8-20">
          <mxGeometry x="-0.3401" y="2" relative="1" as="geometry">
            <mxPoint as="offset" />
          </mxGeometry>
        </mxCell>
        <mxCell id="FTJp6IoLAarafYnfe9E8-22" style="edgeStyle=orthogonalEdgeStyle;rounded=0;orthogonalLoop=1;jettySize=auto;html=1;exitX=0.5;exitY=1;exitDx=0;exitDy=0;entryX=0.476;entryY=0.708;entryDx=0;entryDy=0;entryPerimeter=0;" edge="1" parent="FTJp6IoLAarafYnfe9E8-3" source="FTJp6IoLAarafYnfe9E8-14" target="FTJp6IoLAarafYnfe9E8-35">
          <mxGeometry relative="1" as="geometry">
            <mxPoint x="123.61538461538498" y="299.9999999999999" as="targetPoint" />
          </mxGeometry>
        </mxCell>
        <mxCell id="FTJp6IoLAarafYnfe9E8-37" value="Yes" style="edgeLabel;html=1;align=center;verticalAlign=middle;resizable=0;points=[];" vertex="1" connectable="0" parent="FTJp6IoLAarafYnfe9E8-22">
          <mxGeometry x="-0.5282" y="-1" relative="1" as="geometry">
            <mxPoint as="offset" />
          </mxGeometry>
        </mxCell>
        <mxCell id="FTJp6IoLAarafYnfe9E8-14" value="is Button &quot;Play&quot; Pressed?" style="rhombus;whiteSpace=wrap;html=1;fontColor=#000000;fillColor=#FFFFFF;strokeColor=#000000;" vertex="1" parent="FTJp6IoLAarafYnfe9E8-3">
          <mxGeometry x="57.74" y="180" width="125.52" height="70" as="geometry" />
        </mxCell>
        <mxCell id="FTJp6IoLAarafYnfe9E8-19" value="Yes" style="edgeStyle=orthogonalEdgeStyle;rounded=0;orthogonalLoop=1;jettySize=auto;html=1;exitX=0.5;exitY=1;exitDx=0;exitDy=0;entryX=0.5;entryY=0;entryDx=0;entryDy=0;" edge="1" parent="FTJp6IoLAarafYnfe9E8-3" source="FTJp6IoLAarafYnfe9E8-18" target="FTJp6IoLAarafYnfe9E8-15">
          <mxGeometry relative="1" as="geometry" />
        </mxCell>
        <mxCell id="FTJp6IoLAarafYnfe9E8-18" value="is Button &quot;Exit&quot; Pressed?" style="rhombus;whiteSpace=wrap;html=1;fontColor=#000000;fillColor=#FFFFFF;strokeColor=#000000;" vertex="1" parent="FTJp6IoLAarafYnfe9E8-3">
          <mxGeometry x="611" y="320" width="125.52" height="70" as="geometry" />
        </mxCell>
        <mxCell id="FTJp6IoLAarafYnfe9E8-23" value="Redraw Window" style="rounded=1;whiteSpace=wrap;html=1;arcSize=40;fontColor=#000000;fillColor=#FFFFFF;strokeColor=#000000;" vertex="1" parent="FTJp6IoLAarafYnfe9E8-3">
          <mxGeometry x="10.999999999999986" y="320" width="109" height="25" as="geometry" />
        </mxCell>
        <mxCell id="FTJp6IoLAarafYnfe9E8-24" value="Show Menu To Chose a Map" style="rounded=1;whiteSpace=wrap;html=1;arcSize=40;fontColor=#000000;fillColor=#FFFFFF;strokeColor=#000000;" vertex="1" parent="FTJp6IoLAarafYnfe9E8-3">
          <mxGeometry x="62.62999999999999" y="440" width="109" height="30" as="geometry" />
        </mxCell>
        <mxCell id="FTJp6IoLAarafYnfe9E8-27" value="Draw a &quot;ComeBack&quot; Button" style="rounded=1;whiteSpace=wrap;html=1;arcSize=40;fontColor=#000000;fillColor=#FFFFFF;strokeColor=#000000;" vertex="1" parent="FTJp6IoLAarafYnfe9E8-3">
          <mxGeometry x="120" y="320" width="109" height="30" as="geometry" />
        </mxCell>
        <mxCell id="FTJp6IoLAarafYnfe9E8-39" style="edgeStyle=orthogonalEdgeStyle;rounded=0;orthogonalLoop=1;jettySize=auto;html=1;exitX=0.25;exitY=0.5;exitDx=0;exitDy=0;exitPerimeter=0;entryX=0.5;entryY=0;entryDx=0;entryDy=0;" edge="1" parent="FTJp6IoLAarafYnfe9E8-3" source="FTJp6IoLAarafYnfe9E8-35" target="FTJp6IoLAarafYnfe9E8-23">
          <mxGeometry relative="1" as="geometry" />
        </mxCell>
        <mxCell id="FTJp6IoLAarafYnfe9E8-40" style="edgeStyle=orthogonalEdgeStyle;rounded=0;orthogonalLoop=1;jettySize=auto;html=1;exitX=0.75;exitY=0.5;exitDx=0;exitDy=0;exitPerimeter=0;entryX=0.5;entryY=0;entryDx=0;entryDy=0;" edge="1" parent="FTJp6IoLAarafYnfe9E8-3" source="FTJp6IoLAarafYnfe9E8-35" target="FTJp6IoLAarafYnfe9E8-27">
          <mxGeometry relative="1" as="geometry" />
        </mxCell>
        <mxCell id="FTJp6IoLAarafYnfe9E8-35" value="" style="shape=line;html=1;strokeWidth=6;strokeColor=#000000;" vertex="1" parent="FTJp6IoLAarafYnfe9E8-3">
          <mxGeometry x="73.76" y="280" width="100" height="10" as="geometry" />
        </mxCell>
        <mxCell id="FTJp6IoLAarafYnfe9E8-31" value="is Button &quot;ComeBack&quot; Pressed?" style="rhombus;whiteSpace=wrap;html=1;fontColor=#000000;fillColor=#FFFFFF;strokeColor=#000000;" vertex="1" parent="FTJp6IoLAarafYnfe9E8-3">
          <mxGeometry x="51" y="500" width="132.26" height="120" as="geometry" />
        </mxCell>
        <mxCell id="FTJp6IoLAarafYnfe9E8-30" style="edgeStyle=orthogonalEdgeStyle;rounded=0;orthogonalLoop=1;jettySize=auto;html=1;exitX=0.5;exitY=1;exitDx=0;exitDy=0;entryX=0.5;entryY=0;entryDx=0;entryDy=0;" edge="1" parent="FTJp6IoLAarafYnfe9E8-3" source="FTJp6IoLAarafYnfe9E8-24" target="FTJp6IoLAarafYnfe9E8-31">
          <mxGeometry relative="1" as="geometry" />
        </mxCell>
        <mxCell id="FTJp6IoLAarafYnfe9E8-38" value="" style="shape=line;html=1;strokeWidth=6;strokeColor=#000000;" vertex="1" parent="FTJp6IoLAarafYnfe9E8-3">
          <mxGeometry x="73.75999999999999" y="390" width="100" height="10" as="geometry" />
        </mxCell>
        <mxCell id="FTJp6IoLAarafYnfe9E8-41" style="edgeStyle=orthogonalEdgeStyle;rounded=0;orthogonalLoop=1;jettySize=auto;html=1;exitX=0.5;exitY=1;exitDx=0;exitDy=0;entryX=0.25;entryY=0.5;entryDx=0;entryDy=0;entryPerimeter=0;" edge="1" parent="FTJp6IoLAarafYnfe9E8-3" source="FTJp6IoLAarafYnfe9E8-23" target="FTJp6IoLAarafYnfe9E8-38">
          <mxGeometry relative="1" as="geometry" />
        </mxCell>
        <mxCell id="FTJp6IoLAarafYnfe9E8-42" style="edgeStyle=orthogonalEdgeStyle;rounded=0;orthogonalLoop=1;jettySize=auto;html=1;exitX=0.5;exitY=1;exitDx=0;exitDy=0;entryX=0.75;entryY=0.5;entryDx=0;entryDy=0;entryPerimeter=0;" edge="1" parent="FTJp6IoLAarafYnfe9E8-3" source="FTJp6IoLAarafYnfe9E8-27" target="FTJp6IoLAarafYnfe9E8-38">
          <mxGeometry relative="1" as="geometry" />
        </mxCell>
        <mxCell id="FTJp6IoLAarafYnfe9E8-44" value="" style="endArrow=classic;html=1;rounded=0;exitX=0.447;exitY=0.8;exitDx=0;exitDy=0;exitPerimeter=0;entryX=0.5;entryY=0;entryDx=0;entryDy=0;" edge="1" parent="FTJp6IoLAarafYnfe9E8-3" source="FTJp6IoLAarafYnfe9E8-38" target="FTJp6IoLAarafYnfe9E8-24">
          <mxGeometry width="50" height="50" relative="1" as="geometry">
            <mxPoint x="61" y="510" as="sourcePoint" />
            <mxPoint x="111" y="460" as="targetPoint" />
          </mxGeometry>
        </mxCell>
        <mxCell id="FTJp6IoLAarafYnfe9E8-48" style="edgeStyle=orthogonalEdgeStyle;rounded=0;orthogonalLoop=1;jettySize=auto;html=1;exitX=0.5;exitY=1;exitDx=0;exitDy=0;entryX=0.5;entryY=0;entryDx=0;entryDy=0;" edge="1" parent="FTJp6IoLAarafYnfe9E8-3" source="FTJp6IoLAarafYnfe9E8-46" target="FTJp6IoLAarafYnfe9E8-49">
          <mxGeometry relative="1" as="geometry" />
        </mxCell>
        <mxCell id="FTJp6IoLAarafYnfe9E8-46" value="LoadMap" style="rounded=1;whiteSpace=wrap;html=1;arcSize=40;fontColor=#000000;fillColor=#FFFFFF;strokeColor=#000000;" vertex="1" parent="FTJp6IoLAarafYnfe9E8-3">
          <mxGeometry x="50.99999999999953" y="770" width="109" height="30" as="geometry" />
        </mxCell>
        <mxCell id="FTJp6IoLAarafYnfe9E8-66" style="edgeStyle=orthogonalEdgeStyle;rounded=0;orthogonalLoop=1;jettySize=auto;html=1;exitX=0.5;exitY=1;exitDx=0;exitDy=0;entryX=0.5;entryY=0;entryDx=0;entryDy=0;" edge="1" parent="FTJp6IoLAarafYnfe9E8-3" source="FTJp6IoLAarafYnfe9E8-47" target="FTJp6IoLAarafYnfe9E8-65">
          <mxGeometry relative="1" as="geometry" />
        </mxCell>
        <mxCell id="FTJp6IoLAarafYnfe9E8-47" value="RedrawWindow" style="rounded=1;whiteSpace=wrap;html=1;arcSize=40;fontColor=#000000;fillColor=#FFFFFF;strokeColor=#000000;" vertex="1" parent="FTJp6IoLAarafYnfe9E8-3">
          <mxGeometry x="131.99999999999955" y="980" width="109" height="30" as="geometry" />
        </mxCell>
        <mxCell id="FTJp6IoLAarafYnfe9E8-51" style="edgeStyle=orthogonalEdgeStyle;rounded=0;orthogonalLoop=1;jettySize=auto;html=1;exitX=0.5;exitY=1;exitDx=0;exitDy=0;entryX=0.5;entryY=0;entryDx=0;entryDy=0;" edge="1" parent="FTJp6IoLAarafYnfe9E8-3" source="FTJp6IoLAarafYnfe9E8-49" target="FTJp6IoLAarafYnfe9E8-50">
          <mxGeometry relative="1" as="geometry" />
        </mxCell>
        <mxCell id="FTJp6IoLAarafYnfe9E8-49" value="Place AI`s on Track" style="rounded=1;whiteSpace=wrap;html=1;arcSize=40;fontColor=#000000;fillColor=#FFFFFF;strokeColor=#000000;" vertex="1" parent="FTJp6IoLAarafYnfe9E8-3">
          <mxGeometry x="50.99999999999953" y="820" width="109" height="30" as="geometry" />
        </mxCell>
        <mxCell id="FTJp6IoLAarafYnfe9E8-50" value="Place Player on Track" style="rounded=1;whiteSpace=wrap;html=1;arcSize=40;fontColor=#000000;fillColor=#FFFFFF;strokeColor=#000000;" vertex="1" parent="FTJp6IoLAarafYnfe9E8-3">
          <mxGeometry x="50.99999999999953" y="870" width="109" height="30" as="geometry" />
        </mxCell>
        <mxCell id="FTJp6IoLAarafYnfe9E8-52" value="Allow Player Movement on Binded Buttons" style="rounded=1;whiteSpace=wrap;html=1;arcSize=40;fontColor=#000000;fillColor=#FFFFFF;strokeColor=#000000;" vertex="1" parent="FTJp6IoLAarafYnfe9E8-3">
          <mxGeometry x="180.74" y="810" width="109" height="50" as="geometry" />
        </mxCell>
        <mxCell id="FTJp6IoLAarafYnfe9E8-15" value="Exit Game" style="rounded=1;whiteSpace=wrap;html=1;arcSize=40;fontColor=#000000;fillColor=#FFFFFF;strokeColor=#000000;" vertex="1" parent="FTJp6IoLAarafYnfe9E8-3">
          <mxGeometry x="619.26" y="2315" width="109" height="25" as="geometry" />
        </mxCell>
        <mxCell id="FTJp6IoLAarafYnfe9E8-55" value="Start a Race" style="rounded=1;whiteSpace=wrap;html=1;arcSize=40;fontColor=#000000;fillColor=#FFFFFF;strokeColor=#000000;" vertex="1" parent="FTJp6IoLAarafYnfe9E8-3">
          <mxGeometry x="132" y="1100" width="109" height="30" as="geometry" />
        </mxCell>
        <mxCell id="FTJp6IoLAarafYnfe9E8-60" style="edgeStyle=orthogonalEdgeStyle;rounded=0;orthogonalLoop=1;jettySize=auto;html=1;exitX=0.75;exitY=0.5;exitDx=0;exitDy=0;exitPerimeter=0;entryX=0.5;entryY=0;entryDx=0;entryDy=0;" edge="1" parent="FTJp6IoLAarafYnfe9E8-3" source="FTJp6IoLAarafYnfe9E8-57" target="FTJp6IoLAarafYnfe9E8-52">
          <mxGeometry relative="1" as="geometry" />
        </mxCell>
        <mxCell id="FTJp6IoLAarafYnfe9E8-61" style="edgeStyle=orthogonalEdgeStyle;rounded=0;orthogonalLoop=1;jettySize=auto;html=1;exitX=0.25;exitY=0.5;exitDx=0;exitDy=0;exitPerimeter=0;entryX=0.5;entryY=0;entryDx=0;entryDy=0;" edge="1" parent="FTJp6IoLAarafYnfe9E8-3" source="FTJp6IoLAarafYnfe9E8-57" target="FTJp6IoLAarafYnfe9E8-46">
          <mxGeometry relative="1" as="geometry" />
        </mxCell>
        <mxCell id="FTJp6IoLAarafYnfe9E8-57" value="" style="shape=line;html=1;strokeWidth=6;strokeColor=#000000;" vertex="1" parent="FTJp6IoLAarafYnfe9E8-3">
          <mxGeometry x="122.74" y="730" width="100" height="10" as="geometry" />
        </mxCell>
        <mxCell id="FTJp6IoLAarafYnfe9E8-62" style="edgeStyle=orthogonalEdgeStyle;rounded=0;orthogonalLoop=1;jettySize=auto;html=1;exitX=0.25;exitY=0.5;exitDx=0;exitDy=0;exitPerimeter=0;entryX=0.5;entryY=0;entryDx=0;entryDy=0;" edge="1" parent="FTJp6IoLAarafYnfe9E8-3" source="FTJp6IoLAarafYnfe9E8-58" target="FTJp6IoLAarafYnfe9E8-47">
          <mxGeometry relative="1" as="geometry">
            <Array as="points">
              <mxPoint x="186" y="945" />
              <mxPoint x="186" y="975" />
            </Array>
          </mxGeometry>
        </mxCell>
        <mxCell id="FTJp6IoLAarafYnfe9E8-58" value="" style="shape=line;html=1;strokeWidth=6;strokeColor=#000000;" vertex="1" parent="FTJp6IoLAarafYnfe9E8-3">
          <mxGeometry x="136.5" y="940" width="100" height="10" as="geometry" />
        </mxCell>
        <mxCell id="FTJp6IoLAarafYnfe9E8-63" style="edgeStyle=orthogonalEdgeStyle;rounded=0;orthogonalLoop=1;jettySize=auto;html=1;exitX=0.5;exitY=1;exitDx=0;exitDy=0;entryX=0.75;entryY=0.5;entryDx=0;entryDy=0;entryPerimeter=0;" edge="1" parent="FTJp6IoLAarafYnfe9E8-3" source="FTJp6IoLAarafYnfe9E8-52" target="FTJp6IoLAarafYnfe9E8-58">
          <mxGeometry relative="1" as="geometry" />
        </mxCell>
        <mxCell id="FTJp6IoLAarafYnfe9E8-64" style="edgeStyle=orthogonalEdgeStyle;rounded=0;orthogonalLoop=1;jettySize=auto;html=1;exitX=0.5;exitY=1;exitDx=0;exitDy=0;entryX=0.25;entryY=0.5;entryDx=0;entryDy=0;entryPerimeter=0;" edge="1" parent="FTJp6IoLAarafYnfe9E8-3" source="FTJp6IoLAarafYnfe9E8-50" target="FTJp6IoLAarafYnfe9E8-58">
          <mxGeometry relative="1" as="geometry" />
        </mxCell>
        <mxCell id="FTJp6IoLAarafYnfe9E8-67" style="edgeStyle=orthogonalEdgeStyle;rounded=0;orthogonalLoop=1;jettySize=auto;html=1;exitX=0.5;exitY=1;exitDx=0;exitDy=0;entryX=0.5;entryY=0;entryDx=0;entryDy=0;" edge="1" parent="FTJp6IoLAarafYnfe9E8-3" source="FTJp6IoLAarafYnfe9E8-65" target="FTJp6IoLAarafYnfe9E8-55">
          <mxGeometry relative="1" as="geometry" />
        </mxCell>
        <mxCell id="FTJp6IoLAarafYnfe9E8-65" value="Show Countdown" style="rounded=1;whiteSpace=wrap;html=1;arcSize=40;fontColor=#000000;fillColor=#FFFFFF;strokeColor=#000000;" vertex="1" parent="FTJp6IoLAarafYnfe9E8-3">
          <mxGeometry x="131.99999999999955" y="1040" width="109" height="30" as="geometry" />
        </mxCell>
        <mxCell id="FTJp6IoLAarafYnfe9E8-82" value="Yes" style="edgeStyle=orthogonalEdgeStyle;rounded=0;orthogonalLoop=1;jettySize=auto;html=1;exitX=0.5;exitY=1;exitDx=0;exitDy=0;entryX=0.5;entryY=0;entryDx=0;entryDy=0;" edge="1" parent="FTJp6IoLAarafYnfe9E8-3" source="FTJp6IoLAarafYnfe9E8-72" target="FTJp6IoLAarafYnfe9E8-81">
          <mxGeometry relative="1" as="geometry" />
        </mxCell>
        <mxCell id="FTJp6IoLAarafYnfe9E8-72" value="Is any Moving button pressed?" style="rhombus;whiteSpace=wrap;html=1;fontColor=#000000;fillColor=#FFFFFF;strokeColor=#000000;" vertex="1" parent="FTJp6IoLAarafYnfe9E8-3">
          <mxGeometry x="78.24000000000001" y="1270" width="132.26" height="60" as="geometry" />
        </mxCell>
        <mxCell id="FTJp6IoLAarafYnfe9E8-75" style="edgeStyle=orthogonalEdgeStyle;rounded=0;orthogonalLoop=1;jettySize=auto;html=1;exitX=1;exitY=0.5;exitDx=0;exitDy=0;entryX=0.5;entryY=0;entryDx=0;entryDy=0;" edge="1" parent="FTJp6IoLAarafYnfe9E8-3" source="FTJp6IoLAarafYnfe9E8-74" target="FTJp6IoLAarafYnfe9E8-68">
          <mxGeometry relative="1" as="geometry" />
        </mxCell>
        <mxCell id="FTJp6IoLAarafYnfe9E8-77" value="No" style="edgeLabel;html=1;align=center;verticalAlign=middle;resizable=0;points=[];" vertex="1" connectable="0" parent="FTJp6IoLAarafYnfe9E8-75">
          <mxGeometry x="0.3444" y="-1" relative="1" as="geometry">
            <mxPoint as="offset" />
          </mxGeometry>
        </mxCell>
        <mxCell id="FTJp6IoLAarafYnfe9E8-74" value="is Race time went out?" style="rhombus;whiteSpace=wrap;html=1;fontColor=#000000;fillColor=#FFFFFF;strokeColor=#000000;" vertex="1" parent="FTJp6IoLAarafYnfe9E8-3">
          <mxGeometry x="291" y="1480" width="132.26" height="60" as="geometry" />
        </mxCell>
        <mxCell id="FTJp6IoLAarafYnfe9E8-68" value="Decrease Time Amount" style="rounded=1;whiteSpace=wrap;html=1;arcSize=40;fontColor=#000000;fillColor=#FFFFFF;strokeColor=#000000;" vertex="1" parent="FTJp6IoLAarafYnfe9E8-3">
          <mxGeometry x="449.26" y="1610" width="109" height="30" as="geometry" />
        </mxCell>
        <mxCell id="FTJp6IoLAarafYnfe9E8-78" value="Show &quot;Losing Menu&quot;" style="rounded=1;whiteSpace=wrap;html=1;arcSize=40;fontColor=#000000;fillColor=#FFFFFF;strokeColor=#000000;" vertex="1" parent="FTJp6IoLAarafYnfe9E8-3">
          <mxGeometry x="303.36" y="1860" width="133.37" height="30" as="geometry" />
        </mxCell>
        <mxCell id="FTJp6IoLAarafYnfe9E8-86" value="Yes" style="edgeStyle=orthogonalEdgeStyle;rounded=0;orthogonalLoop=1;jettySize=auto;html=1;exitX=0.5;exitY=1;exitDx=0;exitDy=0;entryX=0.5;entryY=0;entryDx=0;entryDy=0;" edge="1" parent="FTJp6IoLAarafYnfe9E8-3" source="FTJp6IoLAarafYnfe9E8-81" target="FTJp6IoLAarafYnfe9E8-85">
          <mxGeometry relative="1" as="geometry" />
        </mxCell>
        <mxCell id="FTJp6IoLAarafYnfe9E8-81" value="is Player Crossed Finish Line?" style="rhombus;whiteSpace=wrap;html=1;fontColor=#000000;fillColor=#FFFFFF;strokeColor=#000000;" vertex="1" parent="FTJp6IoLAarafYnfe9E8-3">
          <mxGeometry x="83.55" y="1370" width="121.63" height="90" as="geometry" />
        </mxCell>
        <mxCell id="FTJp6IoLAarafYnfe9E8-100" style="edgeStyle=orthogonalEdgeStyle;rounded=0;orthogonalLoop=1;jettySize=auto;html=1;exitX=0.5;exitY=1;exitDx=0;exitDy=0;entryX=0.5;entryY=0;entryDx=0;entryDy=0;" edge="1" parent="FTJp6IoLAarafYnfe9E8-3" source="FTJp6IoLAarafYnfe9E8-85" target="FTJp6IoLAarafYnfe9E8-98">
          <mxGeometry relative="1" as="geometry" />
        </mxCell>
        <mxCell id="FTJp6IoLAarafYnfe9E8-85" value="Process his place at this race" style="rounded=1;whiteSpace=wrap;html=1;arcSize=40;fontColor=#000000;fillColor=#FFFFFF;strokeColor=#000000;" vertex="1" parent="FTJp6IoLAarafYnfe9E8-3">
          <mxGeometry x="89.87" y="1520" width="109" height="30" as="geometry" />
        </mxCell>
        <mxCell id="FTJp6IoLAarafYnfe9E8-125" style="edgeStyle=orthogonalEdgeStyle;rounded=0;orthogonalLoop=1;jettySize=auto;html=1;exitX=0.5;exitY=1;exitDx=0;exitDy=0;entryX=0.5;entryY=0;entryDx=0;entryDy=0;" edge="1" parent="FTJp6IoLAarafYnfe9E8-3" source="FTJp6IoLAarafYnfe9E8-96" target="FTJp6IoLAarafYnfe9E8-107">
          <mxGeometry relative="1" as="geometry" />
        </mxCell>
        <mxCell id="FTJp6IoLAarafYnfe9E8-96" value="Draw &quot;Go To MainMenu&quot; Button" style="rounded=1;whiteSpace=wrap;html=1;arcSize=40;fontColor=#000000;fillColor=#FFFFFF;strokeColor=#000000;" vertex="1" parent="FTJp6IoLAarafYnfe9E8-3">
          <mxGeometry x="73.75999999999998" y="1650" width="133.37" height="30" as="geometry" />
        </mxCell>
        <mxCell id="FTJp6IoLAarafYnfe9E8-124" style="edgeStyle=orthogonalEdgeStyle;rounded=0;orthogonalLoop=1;jettySize=auto;html=1;exitX=0.5;exitY=1;exitDx=0;exitDy=0;entryX=0.5;entryY=0;entryDx=0;entryDy=0;" edge="1" parent="FTJp6IoLAarafYnfe9E8-3" source="FTJp6IoLAarafYnfe9E8-98" target="FTJp6IoLAarafYnfe9E8-96">
          <mxGeometry relative="1" as="geometry" />
        </mxCell>
        <mxCell id="FTJp6IoLAarafYnfe9E8-98" value="Show Player list of places on chosen race&amp;nbsp;&amp;nbsp;" style="rounded=1;whiteSpace=wrap;html=1;arcSize=40;fontColor=#000000;fillColor=#FFFFFF;strokeColor=#000000;" vertex="1" parent="FTJp6IoLAarafYnfe9E8-3">
          <mxGeometry x="85.37" y="1570" width="109" height="50" as="geometry" />
        </mxCell>
        <mxCell id="FTJp6IoLAarafYnfe9E8-107" value="Show &quot;Wining Menu&quot;" style="rounded=1;whiteSpace=wrap;html=1;arcSize=40;fontColor=#000000;fillColor=#FFFFFF;strokeColor=#000000;" vertex="1" parent="FTJp6IoLAarafYnfe9E8-3">
          <mxGeometry x="73.18" y="1710" width="133.37" height="30" as="geometry" />
        </mxCell>
        <mxCell id="FTJp6IoLAarafYnfe9E8-112" value="Process his place at this race" style="rounded=1;whiteSpace=wrap;html=1;arcSize=40;fontColor=#000000;fillColor=#FFFFFF;strokeColor=#000000;" vertex="1" parent="FTJp6IoLAarafYnfe9E8-3">
          <mxGeometry x="307.87" y="1570" width="109" height="30" as="geometry" />
        </mxCell>
        <mxCell id="FTJp6IoLAarafYnfe9E8-115" value="" style="shape=line;html=1;strokeWidth=6;strokeColor=#000000;" vertex="1" parent="FTJp6IoLAarafYnfe9E8-3">
          <mxGeometry x="312.37" y="1700" width="100" height="10" as="geometry" />
        </mxCell>
        <mxCell id="FTJp6IoLAarafYnfe9E8-116" value="" style="shape=line;html=1;strokeWidth=6;strokeColor=#000000;" vertex="1" parent="FTJp6IoLAarafYnfe9E8-3">
          <mxGeometry x="320.04999999999995" y="1820" width="100" height="10" as="geometry" />
        </mxCell>
        <mxCell id="FTJp6IoLAarafYnfe9E8-117" value="Draw &quot;Go To MainMenu&quot; Button" style="rounded=1;whiteSpace=wrap;html=1;arcSize=40;fontColor=#000000;fillColor=#FFFFFF;strokeColor=#000000;" vertex="1" parent="FTJp6IoLAarafYnfe9E8-3">
          <mxGeometry x="370.92999999999995" y="1750" width="133.37" height="30" as="geometry" />
        </mxCell>
        <mxCell id="FTJp6IoLAarafYnfe9E8-114" style="edgeStyle=orthogonalEdgeStyle;rounded=0;orthogonalLoop=1;jettySize=auto;html=1;exitX=0.75;exitY=0.5;exitDx=0;exitDy=0;exitPerimeter=0;entryX=0.5;entryY=0;entryDx=0;entryDy=0;" edge="1" parent="FTJp6IoLAarafYnfe9E8-3" source="FTJp6IoLAarafYnfe9E8-115" target="FTJp6IoLAarafYnfe9E8-117">
          <mxGeometry relative="1" as="geometry" />
        </mxCell>
        <mxCell id="FTJp6IoLAarafYnfe9E8-118" value="Draw &quot;Restart&quot; Button" style="rounded=1;whiteSpace=wrap;html=1;arcSize=40;fontColor=#000000;fillColor=#FFFFFF;strokeColor=#000000;" vertex="1" parent="FTJp6IoLAarafYnfe9E8-3">
          <mxGeometry x="229" y="1750" width="133.37" height="30" as="geometry" />
        </mxCell>
        <mxCell id="FTJp6IoLAarafYnfe9E8-119" value="Show Player list of places on chosen race&amp;nbsp;&amp;nbsp;" style="rounded=1;whiteSpace=wrap;html=1;arcSize=40;fontColor=#000000;fillColor=#FFFFFF;strokeColor=#000000;" vertex="1" parent="FTJp6IoLAarafYnfe9E8-3">
          <mxGeometry x="303.37" y="1620" width="109" height="50" as="geometry" />
        </mxCell>
        <mxCell id="FTJp6IoLAarafYnfe9E8-120" style="edgeStyle=orthogonalEdgeStyle;rounded=0;orthogonalLoop=1;jettySize=auto;html=1;exitX=0.5;exitY=1;exitDx=0;exitDy=0;entryX=0.455;entryY=0.167;entryDx=0;entryDy=0;entryPerimeter=0;" edge="1" parent="FTJp6IoLAarafYnfe9E8-3" source="FTJp6IoLAarafYnfe9E8-119" target="FTJp6IoLAarafYnfe9E8-115">
          <mxGeometry relative="1" as="geometry" />
        </mxCell>
        <mxCell id="FTJp6IoLAarafYnfe9E8-113" style="edgeStyle=orthogonalEdgeStyle;rounded=0;orthogonalLoop=1;jettySize=auto;html=1;exitX=0.25;exitY=0.5;exitDx=0;exitDy=0;exitPerimeter=0;entryX=0.5;entryY=0;entryDx=0;entryDy=0;" edge="1" parent="FTJp6IoLAarafYnfe9E8-3" source="FTJp6IoLAarafYnfe9E8-115" target="FTJp6IoLAarafYnfe9E8-118">
          <mxGeometry relative="1" as="geometry" />
        </mxCell>
        <mxCell id="FTJp6IoLAarafYnfe9E8-121" style="edgeStyle=orthogonalEdgeStyle;rounded=0;orthogonalLoop=1;jettySize=auto;html=1;exitX=0.5;exitY=1;exitDx=0;exitDy=0;entryX=0.25;entryY=0.5;entryDx=0;entryDy=0;entryPerimeter=0;" edge="1" parent="FTJp6IoLAarafYnfe9E8-3" source="FTJp6IoLAarafYnfe9E8-118" target="FTJp6IoLAarafYnfe9E8-116">
          <mxGeometry relative="1" as="geometry" />
        </mxCell>
        <mxCell id="FTJp6IoLAarafYnfe9E8-111" style="edgeStyle=orthogonalEdgeStyle;rounded=0;orthogonalLoop=1;jettySize=auto;html=1;exitX=0.5;exitY=1;exitDx=0;exitDy=0;entryX=0.5;entryY=0;entryDx=0;entryDy=0;" edge="1" parent="FTJp6IoLAarafYnfe9E8-3" source="FTJp6IoLAarafYnfe9E8-112" target="FTJp6IoLAarafYnfe9E8-119">
          <mxGeometry relative="1" as="geometry" />
        </mxCell>
        <mxCell id="FTJp6IoLAarafYnfe9E8-122" style="edgeStyle=orthogonalEdgeStyle;rounded=0;orthogonalLoop=1;jettySize=auto;html=1;exitX=0.5;exitY=1;exitDx=0;exitDy=0;entryX=0.75;entryY=0.5;entryDx=0;entryDy=0;entryPerimeter=0;" edge="1" parent="FTJp6IoLAarafYnfe9E8-3" source="FTJp6IoLAarafYnfe9E8-117" target="FTJp6IoLAarafYnfe9E8-116">
          <mxGeometry relative="1" as="geometry" />
        </mxCell>
        <mxCell id="FTJp6IoLAarafYnfe9E8-123" value="" style="endArrow=classic;html=1;rounded=0;exitX=0.503;exitY=0.663;exitDx=0;exitDy=0;exitPerimeter=0;entryX=0.5;entryY=0;entryDx=0;entryDy=0;" edge="1" parent="FTJp6IoLAarafYnfe9E8-3" source="FTJp6IoLAarafYnfe9E8-116" target="FTJp6IoLAarafYnfe9E8-78">
          <mxGeometry width="50" height="50" relative="1" as="geometry">
            <mxPoint x="374.77" y="1837" as="sourcePoint" />
            <mxPoint x="374.77" y="1880" as="targetPoint" />
          </mxGeometry>
        </mxCell>
        <mxCell id="FTJp6IoLAarafYnfe9E8-129" style="edgeStyle=orthogonalEdgeStyle;rounded=0;orthogonalLoop=1;jettySize=auto;html=1;exitX=0.5;exitY=1;exitDx=0;exitDy=0;entryX=0.443;entryY=0.038;entryDx=0;entryDy=0;entryPerimeter=0;" edge="1" parent="FTJp6IoLAarafYnfe9E8-3" source="FTJp6IoLAarafYnfe9E8-74" target="FTJp6IoLAarafYnfe9E8-112">
          <mxGeometry relative="1" as="geometry" />
        </mxCell>
        <mxCell id="FTJp6IoLAarafYnfe9E8-136" value="No" style="edgeStyle=orthogonalEdgeStyle;rounded=0;orthogonalLoop=1;jettySize=auto;html=1;exitX=0.5;exitY=1;exitDx=0;exitDy=0;entryX=0.5;entryY=0;entryDx=0;entryDy=0;" edge="1" parent="FTJp6IoLAarafYnfe9E8-3" source="FTJp6IoLAarafYnfe9E8-133" target="FTJp6IoLAarafYnfe9E8-135">
          <mxGeometry relative="1" as="geometry" />
        </mxCell>
        <mxCell id="FTJp6IoLAarafYnfe9E8-133" value="is &quot;Restart&quot; button pressed?" style="rhombus;whiteSpace=wrap;html=1;fontColor=#000000;fillColor=#FFFFFF;strokeColor=#000000;" vertex="1" parent="FTJp6IoLAarafYnfe9E8-3">
          <mxGeometry x="291" y="2110" width="132.26" height="60" as="geometry" />
        </mxCell>
        <mxCell id="FTJp6IoLAarafYnfe9E8-135" value="is &quot;Go To MainMenu&quot; button pressed?" style="rhombus;whiteSpace=wrap;html=1;fontColor=#000000;fillColor=#FFFFFF;strokeColor=#000000;" vertex="1" parent="FTJp6IoLAarafYnfe9E8-3">
          <mxGeometry x="275.13" y="2218" width="164" height="60" as="geometry" />
        </mxCell>
        <mxCell id="FTJp6IoLAarafYnfe9E8-145" value="&lt;br&gt;" style="rhombus;whiteSpace=wrap;html=1;fontColor=#000000;fillColor=#FFFFFF;strokeColor=#000000;" vertex="1" parent="FTJp6IoLAarafYnfe9E8-3">
          <mxGeometry x="332.13" y="1395" width="50" height="40" as="geometry" />
        </mxCell>
        <mxCell id="FTJp6IoLAarafYnfe9E8-73" style="edgeStyle=orthogonalEdgeStyle;rounded=0;orthogonalLoop=1;jettySize=auto;html=1;exitX=1;exitY=0.5;exitDx=0;exitDy=0;entryX=0.5;entryY=0;entryDx=0;entryDy=0;" edge="1" parent="FTJp6IoLAarafYnfe9E8-3" source="FTJp6IoLAarafYnfe9E8-72" target="FTJp6IoLAarafYnfe9E8-145">
          <mxGeometry relative="1" as="geometry">
            <mxPoint x="311" y="1310" as="targetPoint" />
          </mxGeometry>
        </mxCell>
        <mxCell id="FTJp6IoLAarafYnfe9E8-80" value="No" style="edgeLabel;html=1;align=center;verticalAlign=middle;resizable=0;points=[];" vertex="1" connectable="0" parent="FTJp6IoLAarafYnfe9E8-73">
          <mxGeometry x="-0.4619" y="2" relative="1" as="geometry">
            <mxPoint as="offset" />
          </mxGeometry>
        </mxCell>
        <mxCell id="FTJp6IoLAarafYnfe9E8-83" style="edgeStyle=orthogonalEdgeStyle;rounded=0;orthogonalLoop=1;jettySize=auto;html=1;exitX=1;exitY=0.5;exitDx=0;exitDy=0;entryX=0;entryY=0.5;entryDx=0;entryDy=0;" edge="1" parent="FTJp6IoLAarafYnfe9E8-3" source="FTJp6IoLAarafYnfe9E8-81" target="FTJp6IoLAarafYnfe9E8-145">
          <mxGeometry relative="1" as="geometry">
            <mxPoint x="361" y="1385" as="targetPoint" />
          </mxGeometry>
        </mxCell>
        <mxCell id="FTJp6IoLAarafYnfe9E8-84" value="No" style="edgeLabel;html=1;align=center;verticalAlign=middle;resizable=0;points=[];" vertex="1" connectable="0" parent="FTJp6IoLAarafYnfe9E8-83">
          <mxGeometry x="-0.2196" y="-1" relative="1" as="geometry">
            <mxPoint as="offset" />
          </mxGeometry>
        </mxCell>
        <mxCell id="FTJp6IoLAarafYnfe9E8-146" style="edgeStyle=orthogonalEdgeStyle;rounded=0;orthogonalLoop=1;jettySize=auto;html=1;exitX=0.5;exitY=1;exitDx=0;exitDy=0;entryX=0.5;entryY=0;entryDx=0;entryDy=0;" edge="1" parent="FTJp6IoLAarafYnfe9E8-3" source="FTJp6IoLAarafYnfe9E8-145" target="FTJp6IoLAarafYnfe9E8-74">
          <mxGeometry relative="1" as="geometry" />
        </mxCell>
        <mxCell id="FTJp6IoLAarafYnfe9E8-147" value="&lt;br&gt;" style="rhombus;whiteSpace=wrap;html=1;fontColor=#000000;fillColor=#FFFFFF;strokeColor=#000000;" vertex="1" parent="FTJp6IoLAarafYnfe9E8-3">
          <mxGeometry x="144.37" y="680" width="50" height="40" as="geometry" />
        </mxCell>
        <mxCell id="FTJp6IoLAarafYnfe9E8-148" value="" style="edgeStyle=orthogonalEdgeStyle;rounded=0;orthogonalLoop=1;jettySize=auto;html=1;exitX=1;exitY=0.5;exitDx=0;exitDy=0;entryX=0.5;entryY=0;entryDx=0;entryDy=0;" edge="1" parent="FTJp6IoLAarafYnfe9E8-3" source="FTJp6IoLAarafYnfe9E8-133" target="FTJp6IoLAarafYnfe9E8-147">
          <mxGeometry relative="1" as="geometry">
            <mxPoint x="640" y="770" as="targetPoint" />
            <mxPoint x="912" y="2200" as="sourcePoint" />
            <Array as="points">
              <mxPoint x="423" y="2200" />
              <mxPoint x="771" y="2200" />
              <mxPoint x="771" y="650" />
              <mxPoint x="171" y="650" />
              <mxPoint x="171" y="670" />
              <mxPoint x="169" y="670" />
            </Array>
          </mxGeometry>
        </mxCell>
        <mxCell id="FTJp6IoLAarafYnfe9E8-149" value="Yes" style="edgeLabel;html=1;align=center;verticalAlign=middle;resizable=0;points=[];" vertex="1" connectable="0" parent="FTJp6IoLAarafYnfe9E8-148">
          <mxGeometry x="-0.9642" y="2" relative="1" as="geometry">
            <mxPoint x="1" as="offset" />
          </mxGeometry>
        </mxCell>
        <mxCell id="FTJp6IoLAarafYnfe9E8-150" style="edgeStyle=orthogonalEdgeStyle;rounded=0;orthogonalLoop=1;jettySize=auto;html=1;exitX=0.5;exitY=1;exitDx=0;exitDy=0;entryX=0.25;entryY=0.5;entryDx=0;entryDy=0;entryPerimeter=0;" edge="1" parent="FTJp6IoLAarafYnfe9E8-3" source="FTJp6IoLAarafYnfe9E8-147" target="FTJp6IoLAarafYnfe9E8-57">
          <mxGeometry relative="1" as="geometry" />
        </mxCell>
        <mxCell id="FTJp6IoLAarafYnfe9E8-110" style="edgeStyle=orthogonalEdgeStyle;rounded=0;orthogonalLoop=1;jettySize=auto;html=1;exitX=0.5;exitY=1;exitDx=0;exitDy=0;entryX=1;entryY=0.5;entryDx=0;entryDy=0;" edge="1" parent="FTJp6IoLAarafYnfe9E8-1" source="FTJp6IoLAarafYnfe9E8-107" target="FTJp6IoLAarafYnfe9E8-109">
          <mxGeometry relative="1" as="geometry" />
        </mxCell>
        <mxCell id="FTJp6IoLAarafYnfe9E8-128" style="edgeStyle=orthogonalEdgeStyle;rounded=0;orthogonalLoop=1;jettySize=auto;html=1;exitX=1;exitY=0.5;exitDx=0;exitDy=0;entryX=0.5;entryY=0;entryDx=0;entryDy=0;" edge="1" parent="FTJp6IoLAarafYnfe9E8-1" source="FTJp6IoLAarafYnfe9E8-127" target="FTJp6IoLAarafYnfe9E8-9">
          <mxGeometry relative="1" as="geometry" />
        </mxCell>
        <mxCell id="FTJp6IoLAarafYnfe9E8-33" style="edgeStyle=orthogonalEdgeStyle;rounded=0;orthogonalLoop=1;jettySize=auto;html=1;exitX=0;exitY=0.5;exitDx=0;exitDy=0;entryX=0.5;entryY=1;entryDx=0;entryDy=0;" edge="1" parent="FTJp6IoLAarafYnfe9E8-1" source="FTJp6IoLAarafYnfe9E8-31" target="FTJp6IoLAarafYnfe9E8-127">
          <mxGeometry relative="1" as="geometry">
            <mxPoint x="121.00000000000011" y="65.38461538461539" as="targetPoint" />
          </mxGeometry>
        </mxCell>
        <mxCell id="FTJp6IoLAarafYnfe9E8-34" value="Yes" style="edgeLabel;html=1;align=center;verticalAlign=middle;resizable=0;points=[];" vertex="1" connectable="0" parent="FTJp6IoLAarafYnfe9E8-33">
          <mxGeometry x="0.131" y="1" relative="1" as="geometry">
            <mxPoint as="offset" />
          </mxGeometry>
        </mxCell>
        <mxCell id="FTJp6IoLAarafYnfe9E8-130" value="" style="endArrow=classic;html=1;rounded=0;exitX=0;exitY=0.5;exitDx=0;exitDy=0;entryX=1;entryY=0.5;entryDx=0;entryDy=0;" edge="1" parent="FTJp6IoLAarafYnfe9E8-1" source="FTJp6IoLAarafYnfe9E8-15" target="FTJp6IoLAarafYnfe9E8-8">
          <mxGeometry width="50" height="50" relative="1" as="geometry">
            <mxPoint x="621" y="2010" as="sourcePoint" />
            <mxPoint x="671" y="1960" as="targetPoint" />
          </mxGeometry>
        </mxCell>
        <mxCell id="FTJp6IoLAarafYnfe9E8-132" style="edgeStyle=orthogonalEdgeStyle;rounded=0;orthogonalLoop=1;jettySize=auto;html=1;exitX=0.5;exitY=1;exitDx=0;exitDy=0;entryX=1;entryY=0.5;entryDx=0;entryDy=0;" edge="1" parent="FTJp6IoLAarafYnfe9E8-1" source="FTJp6IoLAarafYnfe9E8-78" target="FTJp6IoLAarafYnfe9E8-131">
          <mxGeometry relative="1" as="geometry" />
        </mxCell>
        <mxCell id="FTJp6IoLAarafYnfe9E8-134" style="edgeStyle=orthogonalEdgeStyle;rounded=0;orthogonalLoop=1;jettySize=auto;html=1;exitX=0.5;exitY=1;exitDx=0;exitDy=0;entryX=0.5;entryY=0;entryDx=0;entryDy=0;" edge="1" parent="FTJp6IoLAarafYnfe9E8-1" source="FTJp6IoLAarafYnfe9E8-131" target="FTJp6IoLAarafYnfe9E8-133">
          <mxGeometry relative="1" as="geometry" />
        </mxCell>
        <mxCell id="FTJp6IoLAarafYnfe9E8-7" value="" style="edgeStyle=orthogonalEdgeStyle;html=1;verticalAlign=bottom;endArrow=open;endSize=8;strokeColor=#000000;rounded=0;entryX=0.5;entryY=0;entryDx=0;entryDy=0;" edge="1" source="FTJp6IoLAarafYnfe9E8-6" parent="FTJp6IoLAarafYnfe9E8-1" target="FTJp6IoLAarafYnfe9E8-151">
          <mxGeometry relative="1" as="geometry">
            <mxPoint x="121" y="65" as="targetPoint" />
          </mxGeometry>
        </mxCell>
        <mxCell id="FTJp6IoLAarafYnfe9E8-139" style="edgeStyle=orthogonalEdgeStyle;rounded=0;orthogonalLoop=1;jettySize=auto;html=1;exitX=0;exitY=0.5;exitDx=0;exitDy=0;entryX=0;entryY=0.5;entryDx=0;entryDy=0;" edge="1" parent="FTJp6IoLAarafYnfe9E8-1" source="FTJp6IoLAarafYnfe9E8-135" target="FTJp6IoLAarafYnfe9E8-151">
          <mxGeometry relative="1" as="geometry">
            <mxPoint x="71" y="68.88888888888889" as="targetPoint" />
            <Array as="points">
              <mxPoint x="61" y="2268" />
              <mxPoint x="61" y="100" />
            </Array>
          </mxGeometry>
        </mxCell>
        <mxCell id="FTJp6IoLAarafYnfe9E8-140" value="Yes" style="edgeLabel;html=1;align=center;verticalAlign=middle;resizable=0;points=[];" vertex="1" connectable="0" parent="FTJp6IoLAarafYnfe9E8-139">
          <mxGeometry x="-0.8727" y="-1" relative="1" as="geometry">
            <mxPoint as="offset" />
          </mxGeometry>
        </mxCell>
        <mxCell id="FTJp6IoLAarafYnfe9E8-144" style="edgeStyle=orthogonalEdgeStyle;rounded=0;orthogonalLoop=1;jettySize=auto;html=1;exitX=0.5;exitY=1;exitDx=0;exitDy=0;entryX=0.5;entryY=0;entryDx=0;entryDy=0;" edge="1" parent="1" source="FTJp6IoLAarafYnfe9E8-143" target="FTJp6IoLAarafYnfe9E8-72">
          <mxGeometry relative="1" as="geometry" />
        </mxCell>
        <mxCell id="FTJp6IoLAarafYnfe9E8-143" value="&lt;br&gt;" style="rhombus;whiteSpace=wrap;html=1;fontColor=#000000;fillColor=#FFFFFF;strokeColor=#000000;" vertex="1" parent="1">
          <mxGeometry x="610" y="1270" width="50" height="40" as="geometry" />
        </mxCell>
        <mxCell id="FTJp6IoLAarafYnfe9E8-76" style="edgeStyle=orthogonalEdgeStyle;rounded=0;orthogonalLoop=1;jettySize=auto;html=1;exitX=0.5;exitY=1;exitDx=0;exitDy=0;entryX=0.5;entryY=0;entryDx=0;entryDy=0;" edge="1" parent="1" source="FTJp6IoLAarafYnfe9E8-68" target="FTJp6IoLAarafYnfe9E8-143">
          <mxGeometry relative="1" as="geometry">
            <mxPoint x="574.3700000000001" y="1250" as="targetPoint" />
            <mxPoint x="991" y="1700" as="sourcePoint" />
            <Array as="points">
              <mxPoint x="991" y="1700" />
              <mxPoint x="991" y="1740" />
              <mxPoint x="1058" y="1740" />
              <mxPoint x="1058" y="1230" />
              <mxPoint x="636" y="1230" />
              <mxPoint x="636" y="1260" />
            </Array>
          </mxGeometry>
        </mxCell>
        <mxCell id="FTJp6IoLAarafYnfe9E8-71" style="edgeStyle=orthogonalEdgeStyle;rounded=0;orthogonalLoop=1;jettySize=auto;html=1;exitX=0.5;exitY=1;exitDx=0;exitDy=0;entryX=0;entryY=0.5;entryDx=0;entryDy=0;" edge="1" parent="1" source="FTJp6IoLAarafYnfe9E8-70" target="FTJp6IoLAarafYnfe9E8-143">
          <mxGeometry relative="1" as="geometry">
            <mxPoint x="470" y="1280" as="targetPoint" />
          </mxGeometry>
        </mxCell>
      </root>
    </mxGraphModel>
  </diagram>
</mxfile>
